<svg width="191" height="201" viewBox="0 0 191 201" fill="none" xmlns="http://www.w3.org/2000/svg">
<path d="M171.491 0.0167959C178.842 -0.357922 181.424 5.59768 183.407 11.8407C190.189 33.2147 188.887 54.8411 187.896 76.8168C187.245 91.2238 190.082 96.1316 183.068 109.929C189.19 125.296 193.226 141.168 186.887 157.189C183.032 165.904 179.298 176.258 172.135 182.844C166.484 187.978 163.294 193.752 156.327 197.321C142.512 204.395 130.821 196.547 118.631 195.776C83.7018 193.566 39.8139 189.493 23.0038 152.246C21.0204 147.36 20.304 142.921 19.7719 137.758C18.0352 136.484 16.3907 135.087 14.8514 133.579C12.043 130.863 6.16967 123.692 5.49523 119.758C0.701296 91.7966 -6.35521 33.595 11.5026 10.6526C24.5569 -6.11964 71.9043 43.9214 83.3993 56.1069C97.3748 53.8861 106.67 53.8662 120.469 56.1062C130.545 42.1069 157.735 8.53011 171.491 0.0167959Z" fill="#379566"/>
<path d="M20.4222 16.6357C34.6314 19.2038 53.6126 45.0937 60.7455 56.6653C55.8683 54.5895 41.6384 48.3121 36.9545 50.6677C37.0336 55.0316 53.3514 70.908 57.7603 76.4572C53.7233 76.5019 40.2855 76.0447 40.0579 80.9229C41.4473 83.1458 44.7865 84.5188 47.2216 85.7887L54.2582 89.8344C42.9667 100.221 40.1404 103.753 32.34 117.191C29.3185 113.453 26.6124 109.47 24.2495 105.283C11.6016 83.1602 6.32226 51.5767 13.5059 26.9147C14.8892 22.1671 16.1019 19.0738 20.4222 16.6357Z" fill="white"/>
<path d="M172.94 9.25281C174.949 9.86817 176.61 11.2179 177.338 13.1905C186.16 37.0995 181.589 71.5729 174.182 94.7126C169.712 87.9175 166.145 83.4539 160.586 77.6041L164.568 73.3805C165.321 72.53 165.965 71.511 166.608 70.567C165.879 66.0663 158.337 67.8869 154.758 68.3043C156.832 63.2865 168.14 45.3887 165.811 42.1421C161.778 41.5184 155.937 46.3306 152.543 48.691C155.614 37.4516 164.342 17.344 172.94 9.25281Z" fill="white"/>
<path d="M136.746 150.694C140.469 152.872 157.283 165.597 157.083 170.664C156.763 178.781 139.298 179.274 136.253 182.234C140.61 188.437 153.453 181.082 158.155 178.323C160.003 179.411 161.679 180.23 163.015 181.925C162.881 184.457 162.051 184.8 160.389 187.258C144.09 203.513 103.612 190.468 116.106 164.808C119.628 157.574 129.324 152.88 136.746 150.694Z" fill="white"/>
<path d="M103.745 115.684C121.795 113.51 127.605 126.675 131.335 141.573C126.31 143.834 120.671 145.383 115.295 146.531C89.1509 148.511 73.8636 123.646 103.745 115.684Z" fill="white"/>
<path d="M109.683 119.768C124.837 117.869 125.927 141.165 112.094 144.208C107.968 142.479 103.315 137.133 103.323 132.119C103.331 127.785 106.764 130.908 110.015 128.383C111.593 122.829 109.093 125.262 107.788 121.739L109.683 119.768Z" fill="#379566"/>
<path d="M170.641 111.378C184.513 114.424 182.98 135.531 170.578 141.675C157.882 142.725 159.535 132.028 161.757 122.71C163.012 117.449 165.783 113.865 170.641 111.378Z" fill="white"/>
<path d="M166.662 115.884C168.765 116.831 169.278 116.603 170.13 118.324C165.585 125.87 171.922 123.029 174.103 127.27C174.949 130.481 172.834 135.148 171.421 138.009C160.823 143.089 160.318 123.191 166.662 115.884Z" fill="#379566"/>
<path d="M88.2069 61.3509C102.739 60.1676 118.466 80.412 119.584 93.5285C116.021 92.4553 99.8944 73.5083 95.5845 70.6652C93.8575 69.526 89.5963 63.4328 88.2069 61.3509Z" fill="white"/>
<path d="M167.577 151.049C179.104 156.682 177.431 172.016 167.299 179.017C159.648 175.248 160.372 172.19 164.912 165.771C169.313 159.548 171.033 158.078 167.577 151.049Z" fill="white"/>
<path d="M127.744 63.7333C143.956 66.4141 149.226 78.4167 148.266 93.4357C148.618 93.6117 132.904 68.8755 127.744 63.7333Z" fill="white"/>
</svg>
